<svg width="185" height="47" viewBox="0 0 185 47" fill="none" xmlns="http://www.w3.org/2000/svg">
<mask id="mask0_15_9833" style="mask-type:luminance" maskUnits="userSpaceOnUse" x="0" y="7" width="50" height="33">
<path d="M0 7.98511H49.234V39.8136H0V7.98511Z" fill="white"/>
</mask>
<g mask="url(#mask0_15_9833)">
<mask id="mask1_15_9833" style="mask-type:luminance" maskUnits="userSpaceOnUse" x="0" y="7" width="50" height="33">
<path d="M16.6038 7.98511H45.805C46.9426 7.98511 48.005 8.55242 48.6387 9.49844C49.2708 10.443 49.3902 11.6424 48.9569 12.6931L39.7119 35.1057C38.536 37.9555 35.7584 39.8136 32.6772 39.8136H3.47606C2.33848 39.8136 1.27606 39.2463 0.64391 38.3018C0.0102867 37.3558 -0.10907 36.1578 0.325625 35.1057L9.57063 12.6931C10.745 9.84472 13.5227 7.98511 16.6038 7.98511Z" fill="white"/>
</mask>
<g mask="url(#mask1_15_9833)">
<mask id="mask2_15_9833" style="mask-type:luminance" maskUnits="userSpaceOnUse" x="-1" y="7" width="51" height="33">
<path d="M49.5303 7.88489H-0.263672V39.9492H49.5303V7.88489Z" fill="white"/>
</mask>
<g mask="url(#mask2_15_9833)">
<mask id="mask3_15_9833" style="mask-type:luminance" maskUnits="userSpaceOnUse" x="0" y="7" width="50" height="33">
<path d="M0 7.98511H49.234V39.8136H0V7.98511Z" fill="white"/>
</mask>
<g mask="url(#mask3_15_9833)">
<mask id="mask4_15_9833" style="mask-type:luminance" maskUnits="userSpaceOnUse" x="0" y="7" width="50" height="33">
<path d="M16.6038 7.98511H45.805C46.9426 7.98511 48.005 8.55242 48.6387 9.49844C49.2708 10.443 49.3902 11.6424 48.9569 12.6931L39.7119 35.1057C38.536 37.9555 35.7584 39.8136 32.6772 39.8136H3.47606C2.33848 39.8136 1.27606 39.2463 0.64391 38.3018C0.0102867 37.3558 -0.10907 36.1578 0.325625 35.1057L9.57063 12.6931C10.745 9.84472 13.5227 7.98511 16.6038 7.98511Z" fill="white"/>
</mask>
<g mask="url(#mask4_15_9833)">
<path d="M-1.61621 7.98511H50.8507V39.8136H-1.61621V7.98511Z" fill="#00004D"/>
</g>
</g>
</g>
</g>
</g>
<mask id="mask5_15_9833" style="mask-type:luminance" maskUnits="userSpaceOnUse" x="43" y="7" width="50" height="33">
<path d="M43.7373 7.98511H92.9728V39.8136H43.7373V7.98511Z" fill="white"/>
</mask>
<g mask="url(#mask5_15_9833)">
<mask id="mask6_15_9833" style="mask-type:luminance" maskUnits="userSpaceOnUse" x="43" y="7" width="50" height="33">
<path d="M60.3435 7.98511H89.5447C90.6823 7.98511 91.7447 8.55242 92.3769 9.49844C93.009 10.443 93.1284 11.6424 92.6951 12.6931L83.4501 35.1057C82.2757 37.9555 79.4981 39.8136 76.4154 39.8136H47.2143C46.0767 39.8136 45.0143 39.2463 44.3821 38.3018C43.75 37.3558 43.6306 36.1578 44.0638 35.1057L53.3088 12.6931C54.4832 9.84472 57.2609 7.98511 60.3435 7.98511Z" fill="white"/>
</mask>
<g mask="url(#mask6_15_9833)">
<mask id="mask7_15_9833" style="mask-type:luminance" maskUnits="userSpaceOnUse" x="43" y="7" width="51" height="33">
<path d="M93.2891 7.88489H43.4951V39.9492H93.2891V7.88489Z" fill="white"/>
</mask>
<g mask="url(#mask7_15_9833)">
<mask id="mask8_15_9833" style="mask-type:luminance" maskUnits="userSpaceOnUse" x="43" y="7" width="50" height="33">
<path d="M43.7373 7.98511H92.9728V39.8136H43.7373V7.98511Z" fill="white"/>
</mask>
<g mask="url(#mask8_15_9833)">
<mask id="mask9_15_9833" style="mask-type:luminance" maskUnits="userSpaceOnUse" x="43" y="7" width="50" height="33">
<path d="M60.3435 7.98511H89.5447C90.6823 7.98511 91.7447 8.55242 92.3769 9.49844C93.009 10.443 93.1284 11.6424 92.6951 12.6931L83.4501 35.1057C82.2757 37.9555 79.4981 39.8136 76.4154 39.8136H47.2143C46.0767 39.8136 45.0143 39.2463 44.3821 38.3018C43.75 37.3558 43.6306 36.1578 44.0638 35.1057L53.3088 12.6931C54.4832 9.84472 57.2609 7.98511 60.3435 7.98511Z" fill="white"/>
</mask>
<g mask="url(#mask9_15_9833)">
<path d="M42.1211 7.98511H94.588V39.8136H42.1211V7.98511Z" fill="#00004D"/>
</g>
</g>
</g>
</g>
</g>
<mask id="mask10_15_9833" style="mask-type:luminance" maskUnits="userSpaceOnUse" x="87" y="7" width="50" height="33">
<path d="M87.082 7.98511H136.317V39.8136H87.082V7.98511Z" fill="white"/>
</mask>
<g mask="url(#mask10_15_9833)">
<mask id="mask11_15_9833" style="mask-type:luminance" maskUnits="userSpaceOnUse" x="87" y="7" width="50" height="33">
<path d="M103.687 7.98511H132.888C134.026 7.98511 135.088 8.55242 135.721 9.49844C136.353 10.443 136.472 11.6424 136.039 12.6931L126.794 35.1057C125.619 37.9555 122.842 39.8136 119.759 39.8136H90.558C89.4204 39.8136 88.358 39.2463 87.7259 38.3018C87.0937 37.3558 86.9744 36.1578 87.4076 35.1057L96.6526 12.6931C97.8285 9.84472 100.605 7.98511 103.687 7.98511Z" fill="white"/>
</mask>
<g mask="url(#mask11_15_9833)">
<mask id="mask12_15_9833" style="mask-type:luminance" maskUnits="userSpaceOnUse" x="86" y="7" width="51" height="33">
<path d="M136.67 7.88489H86.876V39.9492H136.67V7.88489Z" fill="white"/>
</mask>
<g mask="url(#mask12_15_9833)">
<mask id="mask13_15_9833" style="mask-type:luminance" maskUnits="userSpaceOnUse" x="87" y="7" width="50" height="33">
<path d="M87.082 7.98511H136.317V39.8136H87.082V7.98511Z" fill="white"/>
</mask>
<g mask="url(#mask13_15_9833)">
<mask id="mask14_15_9833" style="mask-type:luminance" maskUnits="userSpaceOnUse" x="87" y="7" width="50" height="33">
<path d="M103.687 7.98511H132.888C134.026 7.98511 135.088 8.55242 135.721 9.49844C136.353 10.443 136.472 11.6424 136.039 12.6931L126.794 35.1057C125.619 37.9555 122.842 39.8136 119.759 39.8136H90.558C89.4204 39.8136 88.358 39.2463 87.7259 38.3018C87.0937 37.3558 86.9744 36.1578 87.4076 35.1057L96.6526 12.6931C97.8285 9.84472 100.605 7.98511 103.687 7.98511Z" fill="white"/>
</mask>
<g mask="url(#mask14_15_9833)">
<path d="M85.4658 7.98511H137.933V39.8136H85.4658V7.98511Z" fill="#008548"/>
</g>
</g>
</g>
</g>
</g>
<path d="M132.727 20.8845C132.727 22.585 132.478 24.228 132.015 25.7781C129.911 32.8364 123.37 37.982 115.628 37.982C106.185 37.982 98.5303 30.327 98.5303 20.8845C98.5303 17.0813 99.7725 13.5684 101.872 10.7289C104.986 6.516 109.989 3.78552 115.628 3.78552C125.072 3.78552 132.727 11.4406 132.727 20.8845Z" fill="#F5F5F5"/>
<path d="M132.726 20.8845C132.726 22.585 132.477 24.228 132.015 25.7781C128.901 29.9895 123.898 32.7215 118.259 32.7215C108.815 32.7215 101.16 25.0664 101.16 15.6225C101.16 13.922 101.409 12.279 101.872 10.7289C104.985 6.516 109.988 3.78552 115.627 3.78552C125.071 3.78552 132.726 11.4406 132.726 20.8845Z" fill="#F5F5F5"/>
<path d="M132.726 20.8845C132.726 22.585 132.477 24.228 132.015 25.7781C128.901 29.9895 123.898 32.7215 118.259 32.7215C108.815 32.7215 101.16 25.0664 101.16 15.6225C101.16 13.922 101.409 12.279 101.872 10.7289C104.985 6.516 109.988 3.78552 115.627 3.78552C125.071 3.78552 132.726 11.4406 132.726 20.8845Z" fill="#F5F5F5"/>
<path d="M115.628 3.78552C109.989 3.78552 104.986 6.516 101.872 10.7289C101.729 11.2063 101.607 11.6911 101.507 12.1862C104.64 8.64674 109.216 6.4158 114.313 6.4158C117.091 6.4158 119.714 7.07889 122.033 8.25478C121.613 8.23857 121.142 8.29309 120.907 8.60401C120.299 9.40856 121.603 11.5025 122.914 12.7653C124.369 14.1637 126.827 15.4972 127.805 14.6986C128.138 14.4289 128.227 13.9721 128.246 13.6023C129.006 14.6691 129.98 16.2944 130.648 18.4487C130.951 19.4272 131.411 21.2219 131.411 23.5148C131.411 24.6921 131.292 25.8415 131.065 26.9511C131.399 26.5753 131.716 26.1834 132.015 25.7781C132.478 24.228 132.727 22.585 132.727 20.883C132.727 11.4406 125.072 3.78552 115.628 3.78552Z" fill="#F5F5F5"/>
<mask id="mask15_15_9833" style="mask-type:luminance" maskUnits="userSpaceOnUse" x="97" y="3" width="37" height="36">
<path d="M97.873 3.12836H133.521V38.7763H97.873V3.12836Z" fill="white"/>
</mask>
<g mask="url(#mask15_15_9833)">
<path d="M115.628 38.6392C113.232 38.6392 110.907 38.1692 108.717 37.2438C106.602 36.3494 104.704 35.0689 103.073 33.4391C101.443 31.8079 100.163 29.91 99.2685 27.7955C98.3431 25.6058 97.873 23.2805 97.873 20.8845C97.873 18.4871 98.3431 16.1618 99.2685 13.9722C100.163 11.8576 101.443 9.9597 103.073 8.32849C104.704 6.69875 106.602 5.41824 108.717 4.5238C110.907 3.59842 113.232 3.12836 115.628 3.12836C118.025 3.12836 120.35 3.59842 122.54 4.5238C124.655 5.41824 126.553 6.69875 128.184 8.32849C129.814 9.9597 131.094 11.8576 131.988 13.9722C132.914 16.1618 133.384 18.4871 133.384 20.8845C133.384 23.2805 132.914 25.6058 131.988 27.7955C131.094 29.91 129.814 31.8079 128.184 33.4391C126.553 35.0689 124.655 36.3494 122.54 37.2438C120.35 38.1692 118.025 38.6392 115.628 38.6392ZM115.628 4.44423C106.563 4.44423 99.1874 11.8193 99.1874 20.8845C99.1874 29.9483 106.563 37.3234 115.628 37.3234C124.693 37.3234 132.068 29.9483 132.068 20.8845C132.068 11.8193 124.693 4.44423 115.628 4.44423Z" fill="#008548"/>
</g>
<path d="M132.229 24.5595C131.803 24.6302 131.146 24.6553 130.428 24.3797C130.288 24.3252 130.152 24.2633 130.023 24.1926C130.048 23.4706 130.001 22.4597 129.687 21.303C129.368 20.1389 128.89 19.2341 128.49 18.6093C128.676 17.5071 128.782 16.3858 128.806 15.2718C128.82 14.5453 128.8 13.8115 128.744 13.0836C129.501 13.1955 130.258 13.3075 131.014 13.4195C130.428 12.2142 129.411 10.4842 127.709 8.78524C126.164 7.24244 124.605 6.27432 123.47 5.68638C123.564 6.43936 123.66 7.19234 123.756 7.94532C122.564 7.89964 121.366 7.93943 120.185 8.0632C119.51 8.13393 118.831 8.23413 118.162 8.36086C117.629 7.96595 116.855 7.48852 115.846 7.14666C114.537 6.7046 113.373 6.67218 112.594 6.72228C112.51 6.32442 112.435 5.92215 112.371 5.52282C112.3 5.07191 112.24 4.61364 112.193 4.15979L111.67 4.21431C111.718 4.677 111.779 5.14559 111.852 5.60533C111.917 6.01645 111.994 6.43052 112.081 6.84016C111.418 7.17024 110.52 7.71397 109.635 8.58778C108.824 9.38792 108.291 10.1998 107.949 10.829C106.745 10.9808 105.574 11.3433 104.508 11.8988C103.831 12.251 103.2 12.6754 102.621 13.169C102.353 12.3807 102.086 11.5909 101.818 10.801C101.038 11.8679 99.9934 13.5551 99.2891 15.8302C98.5493 18.2247 98.4845 20.3069 98.5479 21.6566C99.1785 21.2544 99.8107 20.8506 100.443 20.4483C100.852 21.1379 101.299 21.8099 101.776 22.4523C102.298 23.1567 102.864 23.836 103.464 24.4799C103.453 25.3596 103.548 26.5606 103.976 27.9103C104.376 29.1687 104.937 30.1442 105.409 30.8235C105.192 31.0534 104.984 31.2906 104.785 31.5323C104.365 32.0407 103.978 32.5829 103.632 33.1429L104.078 33.4199C104.413 32.8791 104.787 32.3575 105.191 31.8668C105.379 31.6384 105.575 31.4144 105.779 31.1978C106.518 31.6576 107.534 32.1851 108.807 32.5741C110.164 32.9882 111.375 33.109 112.29 33.1267C112.899 33.8664 113.596 34.5251 114.371 35.0909C114.948 35.5138 115.566 35.8822 116.213 36.1902C115.922 36.787 115.631 37.3823 115.34 37.9791C116.653 38.0026 118.61 37.8862 120.848 37.1701C122.956 36.4952 124.541 35.533 125.579 34.7888C125.131 34.7373 124.584 34.6312 123.987 34.4131C123.822 34.3527 123.669 34.2893 123.523 34.2245C124.155 33.4273 124.687 32.5579 125.11 31.6296C125.518 30.7322 125.817 29.7906 126.004 28.8225C126.619 28.4231 127.348 27.8632 128.072 27.0984C128.884 26.2379 129.442 25.3788 129.819 24.6803C129.955 24.7511 130.095 24.8144 130.238 24.8704C130.755 25.0694 131.244 25.1327 131.658 25.1327C131.907 25.1327 132.128 25.1091 132.313 25.0797L132.229 24.5595ZM108.658 22.3153C107.909 22.4155 107.013 22.5938 106.031 22.9136C105.101 23.2171 104.309 23.5781 103.665 23.9229C103.147 23.3527 102.656 22.7559 102.199 22.1399C101.681 21.44 101.197 20.7062 100.761 19.9517C100.942 18.854 101.216 17.6265 101.626 16.3121C101.881 15.4943 102.16 14.7369 102.445 14.0428C103.129 13.3694 103.903 12.8065 104.751 12.3645C105.724 11.8576 106.791 11.5216 107.889 11.3684C108.113 11.9401 108.432 12.6076 108.889 13.3075C109.549 14.3169 110.277 15.0537 110.87 15.5621C110.265 16.3283 109.65 17.3318 109.218 18.5828C108.734 19.9797 108.622 21.275 108.658 22.3153ZM111.748 24.8572C110.874 24.0364 110.019 23.3055 109.202 22.6557C109.129 21.6154 109.2 20.245 109.714 18.7552C110.192 17.373 110.906 16.3077 111.564 15.5458C112.482 15.2939 113.411 15.0286 114.355 14.7487C115.33 14.4598 116.286 14.1666 117.224 13.869C118.127 14.728 119.037 15.5901 119.944 16.4432C120.932 17.3745 121.936 18.3146 122.934 19.2415C122.574 20.0092 122.214 20.8874 121.898 21.8732C121.506 23.0874 121.257 24.2132 121.099 25.2049C120.143 25.9653 119.079 26.5606 117.929 26.9746C116.802 27.3813 115.629 27.6038 114.436 27.6348C113.655 26.7462 112.763 25.8091 111.748 24.8572ZM124.631 31.4115C124.182 32.4002 123.601 33.3197 122.906 34.1508C122.082 34.5693 121.059 35.0084 119.854 35.362C118.8 35.673 117.828 35.8527 116.983 35.9574C116.166 35.6199 115.392 35.1882 114.682 34.6665C113.979 34.1523 113.342 33.5599 112.782 32.8953C113.108 32.356 113.447 31.7121 113.747 30.9635C114.166 29.9217 114.396 28.958 114.525 28.1594C115.75 28.1181 116.951 27.8868 118.108 27.4698C119.217 27.0689 120.25 26.509 121.189 25.8002C121.632 26.4501 122.384 27.3533 123.557 28.099C124.241 28.5351 124.896 28.8063 125.436 28.9801C125.256 29.8171 124.986 30.632 124.631 31.4115ZM128.28 15.2615C128.257 16.3062 128.162 17.3583 127.992 18.3957C127.311 18.3809 126.539 18.4045 125.696 18.5018C124.827 18.6005 124.049 18.7582 123.374 18.9335C122.351 17.9816 121.32 17.0164 120.303 16.0601C119.454 15.26 118.6 14.451 117.751 13.6435C117.971 12.892 118.174 11.9769 118.28 10.9233C118.357 10.1674 118.368 9.47486 118.346 8.86186C118.974 8.74545 119.609 8.65262 120.24 8.58631C121.482 8.45664 122.743 8.42127 123.994 8.48316C124.551 9.105 125.132 9.7342 125.738 10.3678C126.567 11.2372 127.388 12.058 128.196 12.8345C128.268 13.6406 128.296 14.454 128.28 15.2615Z" fill="#008548"/>
<mask id="mask16_15_9833" style="mask-type:luminance" maskUnits="userSpaceOnUse" x="135" y="7" width="50" height="33">
<path d="M135.002 7.65802H184.236V39.4865H135.002V7.65802Z" fill="white"/>
</mask>
<g mask="url(#mask16_15_9833)">
<mask id="mask17_15_9833" style="mask-type:luminance" maskUnits="userSpaceOnUse" x="135" y="7" width="50" height="33">
<path d="M151.605 7.65802H180.806C181.944 7.65802 183.006 8.22533 183.64 9.17135C184.272 10.1159 184.392 11.3139 183.958 12.366L174.713 34.7786C173.537 37.6284 170.76 39.4865 167.679 39.4865H138.477C137.34 39.4865 136.277 38.9192 135.644 37.9747C135.012 37.0287 134.892 35.8307 135.326 34.7786L144.571 12.366C145.746 9.51763 148.524 7.65802 151.605 7.65802Z" fill="white"/>
</mask>
<g mask="url(#mask17_15_9833)">
<mask id="mask18_15_9833" style="mask-type:luminance" maskUnits="userSpaceOnUse" x="134" y="7" width="51" height="33">
<path d="M184.577 7.50769H134.783V39.572H184.577V7.50769Z" fill="white"/>
</mask>
<g mask="url(#mask18_15_9833)">
<mask id="mask19_15_9833" style="mask-type:luminance" maskUnits="userSpaceOnUse" x="135" y="7" width="50" height="33">
<path d="M135.001 7.65796H184.235V39.4865H135.001V7.65796Z" fill="white"/>
</mask>
<g mask="url(#mask19_15_9833)">
<mask id="mask20_15_9833" style="mask-type:luminance" maskUnits="userSpaceOnUse" x="135" y="7" width="50" height="33">
<path d="M151.605 7.65796H180.806C181.944 7.65796 183.006 8.22527 183.64 9.17129C184.272 10.1158 184.392 11.3138 183.958 12.3659L174.713 34.7785C173.537 37.6283 170.76 39.4865 167.679 39.4865H138.477C137.34 39.4865 136.277 38.9192 135.644 37.9746C135.012 37.0286 134.892 35.8306 135.326 34.7785L144.571 12.3659C145.746 9.51757 148.524 7.65796 151.605 7.65796Z" fill="white"/>
</mask>
<g mask="url(#mask20_15_9833)">
<path d="M133.385 7.65796H185.852V39.4865H133.385V7.65796Z" fill="#008548"/>
</g>
</g>
</g>
</g>
</g>
<mask id="mask21_15_9833" style="mask-type:luminance" maskUnits="userSpaceOnUse" x="144" y="10" width="37" height="36">
<path d="M144.905 10.4946H180.077V45.6665H144.905V10.4946Z" fill="white"/>
</mask>
<g mask="url(#mask21_15_9833)">
<mask id="mask22_15_9833" style="mask-type:luminance" maskUnits="userSpaceOnUse" x="144" y="10" width="37" height="36">
<path d="M162.492 10.4946C152.78 10.4946 144.905 18.3677 144.905 28.0813C144.905 37.7934 152.78 45.6665 162.492 45.6665C172.204 45.6665 180.077 37.7934 180.077 28.0813C180.077 18.3677 172.204 10.4946 162.492 10.4946Z" fill="white"/>
</mask>
<g mask="url(#mask22_15_9833)">
<mask id="mask23_15_9833" style="mask-type:luminance" maskUnits="userSpaceOnUse" x="144" y="10" width="37" height="36">
<path d="M180.428 10.1483H144.592V45.9849H180.428V10.1483Z" fill="white"/>
</mask>
<g mask="url(#mask23_15_9833)">
<mask id="mask24_15_9833" style="mask-type:luminance" maskUnits="userSpaceOnUse" x="144" y="10" width="37" height="36">
<path d="M144.905 10.4946H180.077V45.6665H144.905V10.4946Z" fill="white"/>
</mask>
<g mask="url(#mask24_15_9833)">
<mask id="mask25_15_9833" style="mask-type:luminance" maskUnits="userSpaceOnUse" x="144" y="10" width="37" height="36">
<path d="M162.492 10.4946C152.78 10.4946 144.905 18.3677 144.905 28.0813C144.905 37.7934 152.78 45.6665 162.492 45.6665C172.204 45.6665 180.077 37.7934 180.077 28.0813C180.077 18.3677 172.204 10.4946 162.492 10.4946Z" fill="white"/>
</mask>
<g mask="url(#mask25_15_9833)">
<path d="M144.905 10.4946H180.077V45.6665H144.905V10.4946Z" fill="#008548"/>
</g>
</g>
</g>
</g>
</g>
<path d="M167.853 14.0532C165.43 14.4333 163.07 15.0434 160.766 15.8863C158.465 16.7277 156.266 17.7842 154.171 19.0573C155.093 20.4336 156.117 21.7303 157.245 22.9445C158.564 22.1459 159.931 21.4445 161.349 20.8388C162.766 20.2332 164.22 19.7307 165.709 19.3314C167.197 18.9321 168.707 18.6388 170.237 18.4517C171.768 18.266 173.303 18.1894 174.845 18.2204C174.933 18.2204 175.026 18.2248 175.117 18.2262C173.681 16.3696 171.926 14.8916 169.852 13.7924C169.188 13.8616 168.52 13.9471 167.853 14.0532Z" fill="white"/>
<path d="M164.589 44.0015C164.542 44.0796 164.49 44.1621 164.441 44.2417C166.774 43.9293 168.933 43.1439 170.921 41.8869C171.193 41.2769 171.453 40.658 171.693 40.0288C172.574 37.7419 173.227 35.3916 173.648 32.9764C174.07 30.5628 174.254 28.1299 174.199 25.6794C172.546 25.7885 170.912 26.0287 169.295 26.3971C169.328 27.9384 169.253 29.4738 169.067 31.0034C168.883 32.5344 168.591 34.0447 168.193 35.533C167.795 37.0228 167.294 38.4757 166.69 39.8947C166.086 41.3123 165.386 42.6812 164.589 44.0015Z" fill="white"/>
<path d="M178.11 24.5596C177.691 22.7176 176.972 21.001 175.951 19.4095C175.572 19.3948 175.196 19.383 174.831 19.3801C173.366 19.3506 171.904 19.4228 170.449 19.5967C168.993 19.772 167.557 20.0461 166.14 20.4204C164.722 20.7947 163.337 21.2647 161.985 21.832C160.633 22.3994 159.328 23.058 158.066 23.8066C159.385 25.1505 160.806 26.375 162.328 27.4816C163.856 26.7714 170.606 23.8965 178.11 24.5596Z" fill="white"/>
<path d="M153.551 18.0774C155.712 16.763 157.982 15.6697 160.357 14.8003C162.734 13.9309 165.172 13.3002 167.672 12.9083C167.723 12.8994 167.775 12.895 167.826 12.8876C167.176 12.6504 166.513 12.4559 165.839 12.3041C165.164 12.1523 164.481 12.0448 163.793 11.9799C163.104 11.9151 162.414 11.8945 161.723 11.9195C161.03 11.9431 160.344 12.0109 159.661 12.1229C158.978 12.2349 158.306 12.3896 157.643 12.587C156.98 12.7845 156.331 13.0247 155.699 13.3046C155.067 13.5861 154.455 13.9058 153.865 14.2654C153.274 14.6249 152.706 15.0198 152.167 15.4516C152.574 16.3549 153.035 17.2302 153.551 18.0774Z" fill="white"/>
<path d="M151.25 16.2369C149.865 17.5204 148.738 18.9984 147.864 20.6723C148.043 21.0097 148.219 21.3383 148.401 21.6596C149.108 22.943 149.901 24.172 150.779 25.3464C151.659 26.5193 152.613 27.6259 153.646 28.6663C154.679 29.7081 155.78 30.6718 156.947 31.5588C158.114 32.4459 159.337 33.2475 160.616 33.9636C161.12 32.1512 161.471 30.3078 161.668 28.4364C160.289 27.4683 154.429 23.0639 151.25 16.2369Z" fill="white"/>
<path d="M175.36 25.6308C175.417 28.1609 175.229 30.6718 174.792 33.165C174.358 35.6568 173.686 38.0837 172.775 40.4458C172.759 40.4871 172.74 40.5269 172.724 40.5681C173.253 40.1246 173.752 39.6486 174.221 39.1403C174.688 38.6319 175.123 38.097 175.522 37.5341C175.923 36.9697 176.285 36.3833 176.609 35.7732C176.935 35.1632 177.219 34.5354 177.464 33.89C177.709 33.2431 177.911 32.5845 178.071 31.9125C178.232 31.2406 178.348 30.5613 178.422 29.8731C178.495 29.1865 178.525 28.4983 178.51 27.8072C178.495 27.1162 178.438 26.4295 178.335 25.7458C177.346 25.647 176.353 25.6087 175.36 25.6308Z" fill="white"/>
<mask id="mask26_15_9833" style="mask-type:luminance" maskUnits="userSpaceOnUse" x="146" y="21" width="15" height="19">
<path d="M146.034 21.8423H160.435V39.9492H146.034V21.8423Z" fill="white"/>
</mask>
<g mask="url(#mask26_15_9833)">
<path d="M147.278 30.3668C148.818 32.275 150.527 34.0138 152.407 35.5875C154.287 37.1598 156.302 38.5361 158.452 39.7134C159.183 38.2266 159.793 36.6912 160.282 35.1071C158.931 34.3645 157.638 33.5305 156.406 32.6065C155.173 31.6812 154.012 30.6733 152.92 29.5843C151.83 28.4939 150.822 27.3342 149.895 26.1023C148.969 24.8705 148.134 23.5782 147.39 22.2284C147.344 22.1473 147.3 22.0634 147.254 21.9808C146.439 23.9569 146.033 26.0124 146.034 28.1506C146.034 28.3554 146.042 28.5587 146.049 28.7621C146.442 29.3043 146.851 29.8407 147.278 30.3668Z" fill="white"/>
</g>
<path d="M163.59 43.4105C164.349 42.1551 165.017 40.8539 165.593 39.5071C166.171 38.1588 166.651 36.7781 167.036 35.3621C167.42 33.9475 167.706 32.5137 167.89 31.0593C168.074 29.6049 168.158 28.1446 168.139 26.6785C166.316 27.1485 164.545 27.7659 162.826 28.5307C162.677 30.2105 161.793 37.4943 157.462 43.6625C159.03 44.1488 160.634 44.3919 162.275 44.3904C162.518 44.3904 162.759 44.3831 163.001 44.3728C163.206 44.0486 163.405 43.7259 163.59 43.4105Z" fill="white"/>
<path d="M157.914 40.742C155.693 39.5278 153.613 38.1087 151.672 36.4849C149.73 34.8625 147.964 33.0663 146.376 31.0961C146.345 31.0578 146.317 31.018 146.286 30.9797C146.407 31.6605 146.572 32.3295 146.778 32.9896C146.986 33.6483 147.234 34.2923 147.522 34.92C147.811 35.5492 148.14 36.1563 148.505 36.7413C148.872 37.3278 149.274 37.8892 149.711 38.4241C150.148 38.959 150.618 39.4644 151.121 39.9389C151.623 40.4148 152.152 40.8554 152.711 41.2636C153.269 41.6718 153.851 42.0431 154.455 42.3761C155.061 42.7106 155.686 43.0038 156.328 43.2588C156.907 42.4513 157.436 41.6128 157.914 40.742Z" fill="white"/>
<mask id="mask27_15_9833" style="mask-type:luminance" maskUnits="userSpaceOnUse" x="1" y="0" width="38" height="38">
<path d="M1.32617 0H38.6864V37.3602H1.32617V0Z" fill="white"/>
</mask>
<g mask="url(#mask27_15_9833)">
<mask id="mask28_15_9833" style="mask-type:luminance" maskUnits="userSpaceOnUse" x="1" y="0" width="38" height="38">
<path d="M20.0063 0C9.68852 0 1.32617 8.36383 1.32617 18.6801C1.32617 28.9978 9.68852 37.3602 20.0063 37.3602C30.3225 37.3602 38.6864 28.9978 38.6864 18.6801C38.6864 8.36383 30.3225 0 20.0063 0Z" fill="white"/>
</mask>
<g mask="url(#mask28_15_9833)">
<mask id="mask29_15_9833" style="mask-type:luminance" maskUnits="userSpaceOnUse" x="1" y="-1" width="38" height="39">
<path d="M38.9678 -0.0368042H1.24512V37.6859H38.9678V-0.0368042Z" fill="white"/>
</mask>
<g mask="url(#mask29_15_9833)">
<mask id="mask30_15_9833" style="mask-type:luminance" maskUnits="userSpaceOnUse" x="1" y="0" width="38" height="38">
<path d="M1.32617 0H38.6864V37.3602H1.32617V0Z" fill="white"/>
</mask>
<g mask="url(#mask30_15_9833)">
<mask id="mask31_15_9833" style="mask-type:luminance" maskUnits="userSpaceOnUse" x="1" y="0" width="38" height="38">
<path d="M20.0063 0C9.68852 0 1.32617 8.36383 1.32617 18.6801C1.32617 28.9978 9.68852 37.3602 20.0063 37.3602C30.3225 37.3602 38.6864 28.9978 38.6864 18.6801C38.6864 8.36383 30.3225 0 20.0063 0Z" fill="white"/>
</mask>
<g mask="url(#mask31_15_9833)">
<path d="M1.32617 0H38.6864V37.3602H1.32617V0Z" fill="#00004D"/>
</g>
</g>
</g>
</g>
</g>
<mask id="mask32_15_9833" style="mask-type:luminance" maskUnits="userSpaceOnUse" x="2" y="1" width="36" height="36">
<path d="M2.75391 1.47205H37.4588V36.1769H2.75391V1.47205Z" fill="white"/>
</mask>
<g mask="url(#mask32_15_9833)">
<mask id="mask33_15_9833" style="mask-type:luminance" maskUnits="userSpaceOnUse" x="-4" y="-5" width="48" height="47">
<path d="M12.7095 -4.44421L43.0777 11.3566L27.2755 41.7248L-3.09277 25.9225L12.7095 -4.44421Z" fill="white"/>
</mask>
<g mask="url(#mask33_15_9833)">
<mask id="mask34_15_9833" style="mask-type:luminance" maskUnits="userSpaceOnUse" x="-4" y="-5" width="48" height="47">
<path d="M12.7095 -4.44421L43.0777 11.3566L27.2755 41.7248L-3.09277 25.9225L12.7095 -4.44421Z" fill="white"/>
</mask>
<g mask="url(#mask34_15_9833)">
<path d="M35.2179 26.6048C35.2076 26.624 35.1987 26.6416 35.1869 26.6608C34.2571 28.4349 33.0577 29.9792 31.6681 31.2671C31.481 31.441 31.2924 31.6075 31.0964 31.771C29.2235 33.3595 27.0441 34.5104 24.7218 35.1764C22.3981 35.8395 19.9358 36.0163 17.4941 35.6553C16.8679 35.5625 16.2431 35.4343 15.6242 35.2692C15.6095 35.2663 15.5977 35.2619 15.5829 35.2589C14.8948 35.0747 14.214 34.8463 13.5406 34.5708C13.0529 34.3733 12.5695 34.1493 12.0951 33.9018C10.5375 33.0913 9.15387 32.0761 7.96619 30.9031C7.66412 30.6055 7.3753 30.3005 7.10122 29.9822C4.60946 27.1338 3.14476 23.5443 2.89573 19.8118C2.85448 19.1914 2.84563 18.5696 2.87363 17.9448C2.97089 15.6372 3.53967 13.3164 4.62125 11.1179C4.68019 11.0029 4.73619 10.8895 4.79513 10.776C4.85555 10.6611 4.91449 10.5491 4.9749 10.4386C7.32962 6.14468 11.2728 3.2477 15.6876 2.09833C16.0397 2.0055 16.3949 1.92446 16.7515 1.8552C16.9651 1.81394 17.1788 1.7771 17.3954 1.74468C18.1174 1.63122 18.8468 1.56491 19.5792 1.54723C22.3892 1.47208 25.2538 2.09097 27.9238 3.48052C29.0688 4.07583 30.1194 4.7846 31.0669 5.58326C31.5591 5.99733 32.0218 6.43497 32.4594 6.89766C35.3903 9.98915 37.0436 14.0605 37.1512 18.2631C37.1747 19.0897 37.1364 19.9208 37.0333 20.7504C37.0274 20.8094 37.02 20.8668 37.0127 20.9258H37.0112C36.9611 21.3177 36.8962 21.7097 36.8181 22.0987C36.5544 23.3881 36.1374 24.6656 35.5612 25.9064C35.4536 26.1392 35.3372 26.3735 35.2179 26.6048Z" fill="#F5F5F5"/>
</g>
</g>
</g>
<mask id="mask35_15_9833" style="mask-type:luminance" maskUnits="userSpaceOnUse" x="6" y="26" width="2" height="2">
<path d="M6.90332 26.7463H7.65777V27.878H6.90332V26.7463Z" fill="white"/>
</mask>
<g mask="url(#mask35_15_9833)">
<mask id="mask36_15_9833" style="mask-type:luminance" maskUnits="userSpaceOnUse" x="-4" y="-5" width="48" height="47">
<path d="M12.7095 -4.44409L43.0777 11.3567L27.2755 41.7249L-3.09277 25.9227L12.7095 -4.44409Z" fill="white"/>
</mask>
<g mask="url(#mask36_15_9833)">
<mask id="mask37_15_9833" style="mask-type:luminance" maskUnits="userSpaceOnUse" x="-4" y="-5" width="48" height="47">
<path d="M12.7095 -4.44409L43.0777 11.3567L27.2755 41.7249L-3.09277 25.9227L12.7095 -4.44409Z" fill="white"/>
</mask>
<g mask="url(#mask37_15_9833)">
<path d="M7.07759 27.4919C7.39145 27.6555 7.64638 27.1663 7.33104 27.0027C7.01865 26.8392 6.76225 27.3284 7.07759 27.4919Z" fill="#F5F5F5"/>
</g>
</g>
</g>
<mask id="mask38_15_9833" style="mask-type:luminance" maskUnits="userSpaceOnUse" x="5" y="24" width="2" height="2">
<path d="M5.77148 24.8601H6.52594V25.9918H5.77148V24.8601Z" fill="white"/>
</mask>
<g mask="url(#mask38_15_9833)">
<mask id="mask39_15_9833" style="mask-type:luminance" maskUnits="userSpaceOnUse" x="-4" y="-5" width="48" height="47">
<path d="M12.7095 -4.44421L43.0777 11.3566L27.2755 41.7248L-3.09277 25.9225L12.7095 -4.44421Z" fill="white"/>
</mask>
<g mask="url(#mask39_15_9833)">
<mask id="mask40_15_9833" style="mask-type:luminance" maskUnits="userSpaceOnUse" x="-4" y="-5" width="48" height="47">
<path d="M12.7095 -4.44421L43.0777 11.3566L27.2755 41.7248L-3.09277 25.9225L12.7095 -4.44421Z" fill="white"/>
</mask>
<g mask="url(#mask40_15_9833)">
<path d="M5.93435 25.5895C6.24821 25.7531 6.50314 25.2639 6.1878 25.1003C5.87393 24.9368 5.61901 25.4245 5.93435 25.5895Z" fill="#F5F5F5"/>
</g>
</g>
</g>
<mask id="mask41_15_9833" style="mask-type:luminance" maskUnits="userSpaceOnUse" x="7" y="24" width="2" height="2">
<path d="M7.6582 24.8601H8.41266V25.6146H7.6582V24.8601Z" fill="white"/>
</mask>
<g mask="url(#mask41_15_9833)">
<mask id="mask42_15_9833" style="mask-type:luminance" maskUnits="userSpaceOnUse" x="-4" y="-5" width="48" height="47">
<path d="M12.7095 -4.44421L43.0777 11.3566L27.2755 41.7248L-3.09277 25.9225L12.7095 -4.44421Z" fill="white"/>
</mask>
<g mask="url(#mask42_15_9833)">
<mask id="mask43_15_9833" style="mask-type:luminance" maskUnits="userSpaceOnUse" x="-4" y="-5" width="48" height="47">
<path d="M12.7095 -4.44421L43.0777 11.3566L27.2755 41.7248L-3.09277 25.9225L12.7095 -4.44421Z" fill="white"/>
</mask>
<g mask="url(#mask43_15_9833)">
<path d="M7.93075 25.4569C8.24462 25.6205 8.49954 25.1312 8.1842 24.9677C7.86887 24.8056 7.61542 25.2919 7.93075 25.4569Z" fill="#F5F5F5"/>
</g>
</g>
</g>
<mask id="mask44_15_9833" style="mask-type:luminance" maskUnits="userSpaceOnUse" x="5" y="22" width="2" height="2">
<path d="M5.39453 22.5968H6.14898V23.3513H5.39453V22.5968Z" fill="white"/>
</mask>
<g mask="url(#mask44_15_9833)">
<mask id="mask45_15_9833" style="mask-type:luminance" maskUnits="userSpaceOnUse" x="-4" y="-5" width="48" height="47">
<path d="M12.7095 -4.44415L43.0777 11.3566L27.2755 41.7249L-3.09277 25.9226L12.7095 -4.44415Z" fill="white"/>
</mask>
<g mask="url(#mask45_15_9833)">
<mask id="mask46_15_9833" style="mask-type:luminance" maskUnits="userSpaceOnUse" x="-4" y="-5" width="48" height="47">
<path d="M12.7095 -4.44415L43.0777 11.3566L27.2755 41.7249L-3.09277 25.9226L12.7095 -4.44415Z" fill="white"/>
</mask>
<g mask="url(#mask46_15_9833)">
<path d="M5.98092 22.7206C5.96177 22.7118 5.94409 22.7015 5.9264 22.6926C5.79968 22.6263 5.61843 22.6749 5.55507 22.8105C5.49171 22.9461 5.53444 23.1096 5.67148 23.1818C5.69064 23.1907 5.70832 23.201 5.726 23.2098C5.85273 23.2761 6.03397 23.2275 6.09733 23.0919C6.1607 22.9564 6.11796 22.7913 5.98092 22.7206Z" fill="#F5F5F5"/>
</g>
</g>
</g>
<mask id="mask47_15_9833" style="mask-type:luminance" maskUnits="userSpaceOnUse" x="7" y="22" width="2" height="2">
<path d="M7.28027 22.5968H8.03473V23.3513H7.28027V22.5968Z" fill="white"/>
</mask>
<g mask="url(#mask47_15_9833)">
<mask id="mask48_15_9833" style="mask-type:luminance" maskUnits="userSpaceOnUse" x="-4" y="-5" width="48" height="47">
<path d="M12.7095 -4.44415L43.0777 11.3566L27.2755 41.7249L-3.09277 25.9226L12.7095 -4.44415Z" fill="white"/>
</mask>
<g mask="url(#mask48_15_9833)">
<mask id="mask49_15_9833" style="mask-type:luminance" maskUnits="userSpaceOnUse" x="-4" y="-5" width="48" height="47">
<path d="M12.7095 -4.44415L43.0777 11.3566L27.2755 41.7249L-3.09277 25.9226L12.7095 -4.44415Z" fill="white"/>
</mask>
<g mask="url(#mask49_15_9833)">
<path d="M7.5561 23.2659C7.86996 23.4294 8.12488 22.9417 7.80955 22.7767C7.49568 22.6131 7.23928 23.1023 7.5561 23.2659Z" fill="#F5F5F5"/>
</g>
</g>
</g>
<mask id="mask50_15_9833" style="mask-type:luminance" maskUnits="userSpaceOnUse" x="4" y="19" width="2" height="2">
<path d="M4.63965 19.9562H5.3941V20.7106H4.63965V19.9562Z" fill="white"/>
</mask>
<g mask="url(#mask50_15_9833)">
<mask id="mask51_15_9833" style="mask-type:luminance" maskUnits="userSpaceOnUse" x="-4" y="-5" width="48" height="47">
<path d="M12.7095 -4.44421L43.0777 11.3566L27.2755 41.7248L-3.09277 25.9225L12.7095 -4.44421Z" fill="white"/>
</mask>
<g mask="url(#mask51_15_9833)">
<mask id="mask52_15_9833" style="mask-type:luminance" maskUnits="userSpaceOnUse" x="-4" y="-5" width="48" height="47">
<path d="M12.7095 -4.44421L43.0777 11.3566L27.2755 41.7248L-3.09277 25.9225L12.7095 -4.44421Z" fill="white"/>
</mask>
<g mask="url(#mask52_15_9833)">
<path d="M4.97824 20.547C5.29358 20.7106 5.54703 20.2214 5.23317 20.0578C4.91783 19.8957 4.66291 20.3835 4.97824 20.547Z" fill="#F5F5F5"/>
</g>
</g>
</g>
<mask id="mask53_15_9833" style="mask-type:luminance" maskUnits="userSpaceOnUse" x="3" y="17" width="2" height="2">
<path d="M3.88574 17.6929H4.6402V18.4473H3.88574V17.6929Z" fill="white"/>
</mask>
<g mask="url(#mask53_15_9833)">
<mask id="mask54_15_9833" style="mask-type:luminance" maskUnits="userSpaceOnUse" x="-4" y="-5" width="48" height="47">
<path d="M12.7095 -4.44415L43.0777 11.3566L27.2755 41.7249L-3.09277 25.9226L12.7095 -4.44415Z" fill="white"/>
</mask>
<g mask="url(#mask54_15_9833)">
<mask id="mask55_15_9833" style="mask-type:luminance" maskUnits="userSpaceOnUse" x="-4" y="-5" width="48" height="47">
<path d="M12.7095 -4.44415L43.0777 11.3566L27.2755 41.7249L-3.09277 25.9226L12.7095 -4.44415Z" fill="white"/>
</mask>
<g mask="url(#mask55_15_9833)">
<path d="M4.05735 18.3486C4.37268 18.5122 4.62613 18.023 4.31227 17.8594C3.99693 17.6959 3.74201 18.1851 4.05735 18.3486Z" fill="#F5F5F5"/>
</g>
</g>
</g>
<mask id="mask56_15_9833" style="mask-type:luminance" maskUnits="userSpaceOnUse" x="8" y="27" width="2" height="2">
<path d="M8.78906 27.5007H9.54352V28.2552H8.78906V27.5007Z" fill="white"/>
</mask>
<g mask="url(#mask56_15_9833)">
<mask id="mask57_15_9833" style="mask-type:luminance" maskUnits="userSpaceOnUse" x="-4" y="-5" width="48" height="47">
<path d="M12.7095 -4.44421L43.0777 11.3566L27.2755 41.7248L-3.09277 25.9225L12.7095 -4.44421Z" fill="white"/>
</mask>
<g mask="url(#mask57_15_9833)">
<mask id="mask58_15_9833" style="mask-type:luminance" maskUnits="userSpaceOnUse" x="-4" y="-5" width="48" height="47">
<path d="M12.7095 -4.44421L43.0777 11.3566L27.2755 41.7248L-3.09277 25.9225L12.7095 -4.44421Z" fill="white"/>
</mask>
<g mask="url(#mask58_15_9833)">
<path d="M9.11367 28.208C9.42901 28.3715 9.68246 27.8823 9.3686 27.7187C9.05473 27.5552 8.79834 28.0429 9.11367 28.208Z" fill="#F5F5F5"/>
</g>
</g>
</g>
<mask id="mask59_15_9833" style="mask-type:luminance" maskUnits="userSpaceOnUse" x="7" y="28" width="2" height="2">
<path d="M7.28027 28.2552H8.41195V29.3869H7.28027V28.2552Z" fill="white"/>
</mask>
<g mask="url(#mask59_15_9833)">
<mask id="mask60_15_9833" style="mask-type:luminance" maskUnits="userSpaceOnUse" x="-4" y="-5" width="48" height="47">
<path d="M12.7095 -4.44409L43.0777 11.3567L27.2755 41.7249L-3.09277 25.9227L12.7095 -4.44409Z" fill="white"/>
</mask>
<g mask="url(#mask60_15_9833)">
<mask id="mask61_15_9833" style="mask-type:luminance" maskUnits="userSpaceOnUse" x="-4" y="-5" width="48" height="47">
<path d="M12.7095 -4.44409L43.0777 11.3567L27.2755 41.7249L-3.09277 25.9227L12.7095 -4.44409Z" fill="white"/>
</mask>
<g mask="url(#mask61_15_9833)">
<path d="M7.76274 29.0863C8.07807 29.2499 8.33152 28.7607 8.01766 28.5971C7.70085 28.435 7.4474 28.9228 7.76274 29.0863Z" fill="#F5F5F5"/>
</g>
</g>
</g>
<mask id="mask62_15_9833" style="mask-type:luminance" maskUnits="userSpaceOnUse" x="11" y="31" width="2" height="2">
<path d="M11.4307 31.6503H12.1851V32.4047H11.4307V31.6503Z" fill="white"/>
</mask>
<g mask="url(#mask62_15_9833)">
<mask id="mask63_15_9833" style="mask-type:luminance" maskUnits="userSpaceOnUse" x="-4" y="-5" width="48" height="47">
<path d="M12.7095 -4.44415L43.0777 11.3566L27.2755 41.7249L-3.09277 25.9226L12.7095 -4.44415Z" fill="white"/>
</mask>
<g mask="url(#mask63_15_9833)">
<mask id="mask64_15_9833" style="mask-type:luminance" maskUnits="userSpaceOnUse" x="-4" y="-5" width="48" height="47">
<path d="M12.7095 -4.44415L43.0777 11.3566L27.2755 41.7249L-3.09277 25.9226L12.7095 -4.44415Z" fill="white"/>
</mask>
<g mask="url(#mask64_15_9833)">
<path d="M11.5879 32.3163C11.9033 32.4798 12.1567 31.9921 11.8429 31.8271C11.5275 31.6635 11.2741 32.1527 11.5879 32.3163Z" fill="#F5F5F5"/>
</g>
</g>
</g>
<mask id="mask65_15_9833" style="mask-type:luminance" maskUnits="userSpaceOnUse" x="13" y="32" width="2" height="2">
<path d="M13.6934 32.4047H14.4478V33.5363H13.6934V32.4047Z" fill="white"/>
</mask>
<g mask="url(#mask65_15_9833)">
<mask id="mask66_15_9833" style="mask-type:luminance" maskUnits="userSpaceOnUse" x="-4" y="-5" width="48" height="47">
<path d="M12.7095 -4.44421L43.0777 11.3566L27.2755 41.7248L-3.09277 25.9225L12.7095 -4.44421Z" fill="white"/>
</mask>
<g mask="url(#mask66_15_9833)">
<mask id="mask67_15_9833" style="mask-type:luminance" maskUnits="userSpaceOnUse" x="-4" y="-5" width="48" height="47">
<path d="M12.7095 -4.44421L43.0777 11.3566L27.2755 41.7248L-3.09277 25.9225L12.7095 -4.44421Z" fill="white"/>
</mask>
<g mask="url(#mask67_15_9833)">
<path d="M14.0047 33.2299C14.3185 33.3934 14.5734 32.9042 14.2581 32.7406C13.9442 32.5771 13.6893 33.0663 14.0047 33.2299Z" fill="#F5F5F5"/>
</g>
</g>
</g>
<mask id="mask68_15_9833" style="mask-type:luminance" maskUnits="userSpaceOnUse" x="15" y="33" width="2" height="2">
<path d="M15.2021 33.9136H16.3338V34.668H15.2021V33.9136Z" fill="white"/>
</mask>
<g mask="url(#mask68_15_9833)">
<mask id="mask69_15_9833" style="mask-type:luminance" maskUnits="userSpaceOnUse" x="-4" y="-5" width="48" height="47">
<path d="M12.7095 -4.44421L43.0777 11.3566L27.2755 41.7248L-3.09277 25.9225L12.7095 -4.44421Z" fill="white"/>
</mask>
<g mask="url(#mask69_15_9833)">
<mask id="mask70_15_9833" style="mask-type:luminance" maskUnits="userSpaceOnUse" x="-4" y="-5" width="48" height="47">
<path d="M12.7095 -4.44421L43.0777 11.3566L27.2755 41.7248L-3.09277 25.9225L12.7095 -4.44421Z" fill="white"/>
</mask>
<g mask="url(#mask70_15_9833)">
<path d="M15.6755 34.5133C15.9909 34.6769 16.2458 34.1877 15.9304 34.0241C15.6166 33.862 15.3617 34.3498 15.6755 34.5133Z" fill="#F5F5F5"/>
</g>
</g>
</g>
<mask id="mask71_15_9833" style="mask-type:luminance" maskUnits="userSpaceOnUse" x="3" y="21" width="3" height="2">
<path d="M3.88574 21.4651H5.01742V22.2195H3.88574V21.4651Z" fill="white"/>
</mask>
<g mask="url(#mask71_15_9833)">
<mask id="mask72_15_9833" style="mask-type:luminance" maskUnits="userSpaceOnUse" x="-4" y="-5" width="48" height="47">
<path d="M12.7095 -4.44421L43.0777 11.3566L27.2755 41.7248L-3.09277 25.9225L12.7095 -4.44421Z" fill="white"/>
</mask>
<g mask="url(#mask72_15_9833)">
<mask id="mask73_15_9833" style="mask-type:luminance" maskUnits="userSpaceOnUse" x="-4" y="-5" width="48" height="47">
<path d="M12.7095 -4.44421L43.0777 11.3566L27.2755 41.7248L-3.09277 25.9225L12.7095 -4.44421Z" fill="white"/>
</mask>
<g mask="url(#mask73_15_9833)">
<path d="M4.31716 21.6139C4.30832 21.633 4.29948 21.6507 4.28917 21.6684C4.22286 21.7951 4.27149 21.9764 4.40705 22.0397C4.54262 22.1031 4.70765 22.0603 4.77838 21.9218C4.78722 21.9042 4.79754 21.8865 4.80638 21.8688C4.87269 21.7406 4.82406 21.5608 4.6885 21.4975C4.55441 21.4341 4.38937 21.4768 4.31716 21.6139Z" fill="#F5F5F5"/>
</g>
</g>
</g>
<mask id="mask74_15_9833" style="mask-type:luminance" maskUnits="userSpaceOnUse" x="6" y="20" width="2" height="2">
<path d="M6.14941 20.3334H7.28109V21.4651H6.14941V20.3334Z" fill="white"/>
</mask>
<g mask="url(#mask74_15_9833)">
<mask id="mask75_15_9833" style="mask-type:luminance" maskUnits="userSpaceOnUse" x="-4" y="-5" width="48" height="47">
<path d="M12.7095 -4.44421L43.0777 11.3566L27.2755 41.7248L-3.09277 25.9225L12.7095 -4.44421Z" fill="white"/>
</mask>
<g mask="url(#mask75_15_9833)">
<mask id="mask76_15_9833" style="mask-type:luminance" maskUnits="userSpaceOnUse" x="-4" y="-5" width="48" height="47">
<path d="M12.7095 -4.44421L43.0777 11.3566L27.2755 41.7248L-3.09277 25.9225L12.7095 -4.44421Z" fill="white"/>
</mask>
<g mask="url(#mask76_15_9833)">
<path d="M6.49002 20.7489C6.48117 20.7666 6.47086 20.7842 6.46202 20.8019C6.39571 20.9301 6.44434 21.1114 6.5799 21.1747C6.71547 21.2366 6.8805 21.1939 6.95123 21.0569C6.96008 21.0392 6.97039 21.0215 6.97923 21.0038C7.04554 20.8756 6.99691 20.6944 6.86135 20.631C6.72578 20.5691 6.56222 20.6118 6.49002 20.7489Z" fill="#F5F5F5"/>
</g>
</g>
</g>
<mask id="mask77_15_9833" style="mask-type:luminance" maskUnits="userSpaceOnUse" x="3" y="15" width="2" height="2">
<path d="M3.88574 15.4294H4.6402V16.1839H3.88574V15.4294Z" fill="white"/>
</mask>
<g mask="url(#mask77_15_9833)">
<mask id="mask78_15_9833" style="mask-type:luminance" maskUnits="userSpaceOnUse" x="-4" y="-5" width="48" height="47">
<path d="M12.7095 -4.44421L43.0777 11.3566L27.2755 41.7248L-3.09277 25.9225L12.7095 -4.44421Z" fill="white"/>
</mask>
<g mask="url(#mask78_15_9833)">
<mask id="mask79_15_9833" style="mask-type:luminance" maskUnits="userSpaceOnUse" x="-4" y="-5" width="48" height="47">
<path d="M12.7095 -4.44421L43.0777 11.3566L27.2755 41.7248L-3.09277 25.9225L12.7095 -4.44421Z" fill="white"/>
</mask>
<g mask="url(#mask79_15_9833)">
<path d="M4.11985 16.1102C4.43518 16.2737 4.68863 15.7845 4.37477 15.621C4.05943 15.4574 3.80451 15.9451 4.11985 16.1102Z" fill="#F5F5F5"/>
</g>
</g>
</g>
<mask id="mask80_15_9833" style="mask-type:luminance" maskUnits="userSpaceOnUse" x="9" y="29" width="2" height="2">
<path d="M9.9209 29.0096H10.6754V30.1413H9.9209V29.0096Z" fill="white"/>
</mask>
<g mask="url(#mask80_15_9833)">
<mask id="mask81_15_9833" style="mask-type:luminance" maskUnits="userSpaceOnUse" x="-4" y="-5" width="48" height="47">
<path d="M12.7095 -4.44421L43.0777 11.3566L27.2755 41.7248L-3.09277 25.9225L12.7095 -4.44421Z" fill="white"/>
</mask>
<g mask="url(#mask81_15_9833)">
<mask id="mask82_15_9833" style="mask-type:luminance" maskUnits="userSpaceOnUse" x="-4" y="-5" width="48" height="47">
<path d="M12.7095 -4.44421L43.0777 11.3566L27.2755 41.7248L-3.09277 25.9225L12.7095 -4.44421Z" fill="white"/>
</mask>
<g mask="url(#mask82_15_9833)">
<path d="M10.4981 29.7184C10.507 29.7007 10.5173 29.683 10.5261 29.6653C10.5924 29.5371 10.5438 29.3559 10.4082 29.2925C10.2727 29.2306 10.1091 29.2733 10.0369 29.4104C10.028 29.4281 10.0177 29.4457 10.0089 29.4634C9.94258 29.5916 9.99121 29.7729 10.1268 29.8362C10.2623 29.8981 10.4274 29.8539 10.4981 29.7184Z" fill="#F5F5F5"/>
</g>
</g>
</g>
<mask id="mask83_15_9833" style="mask-type:luminance" maskUnits="userSpaceOnUse" x="15" y="1" width="23" height="21">
<path d="M15.5801 1.47205H37.4592V21.0878H15.5801V1.47205Z" fill="white"/>
</mask>
<g mask="url(#mask83_15_9833)">
<mask id="mask84_15_9833" style="mask-type:luminance" maskUnits="userSpaceOnUse" x="-4" y="-5" width="48" height="47">
<path d="M12.7095 -4.44421L43.0777 11.3566L27.2755 41.7248L-3.09277 25.9225L12.7095 -4.44421Z" fill="white"/>
</mask>
<g mask="url(#mask84_15_9833)">
<mask id="mask85_15_9833" style="mask-type:luminance" maskUnits="userSpaceOnUse" x="-4" y="-5" width="48" height="47">
<path d="M12.7095 -4.44421L43.0777 11.3566L27.2755 41.7248L-3.09277 25.9225L12.7095 -4.44421Z" fill="white"/>
</mask>
<g mask="url(#mask85_15_9833)">
<path d="M37.0318 20.7489C36.9154 20.6045 36.7917 20.4645 36.6635 20.3304C34.9748 18.5312 32.5626 17.4732 30.0473 17.4231C29.1499 17.4055 28.2422 17.5366 27.2844 17.6766C25.5544 17.9241 23.7641 18.1835 21.9192 17.5572C19.0753 16.5906 17.1258 14.5998 16.2844 11.8045C15.3826 8.81323 15.8511 5.01002 17.3939 1.74171C18.1145 1.62824 18.8454 1.56341 19.5777 1.54425C18.0158 4.31009 17.0963 8.12951 18.0423 11.274C18.7142 13.5109 20.2187 15.036 22.5101 15.8155C23.9365 16.3018 25.4351 16.0852 27.0221 15.8568C28.0123 15.7138 29.0364 15.565 30.0841 15.5886C32.6908 15.6402 35.2047 16.6009 37.1512 18.2616C37.1733 19.0897 37.135 19.9193 37.0318 20.7489Z" fill="#00004D"/>
</g>
</g>
</g>
<mask id="mask86_15_9833" style="mask-type:luminance" maskUnits="userSpaceOnUse" x="2" y="17" width="14" height="19">
<path d="M2.75391 17.6929H15.9568V35.4225H2.75391V17.6929Z" fill="white"/>
</mask>
<g mask="url(#mask86_15_9833)">
<mask id="mask87_15_9833" style="mask-type:luminance" maskUnits="userSpaceOnUse" x="-4" y="-5" width="48" height="47">
<path d="M12.7095 -4.44415L43.0777 11.3566L27.2755 41.7249L-3.09277 25.9226L12.7095 -4.44415Z" fill="white"/>
</mask>
<g mask="url(#mask87_15_9833)">
<mask id="mask88_15_9833" style="mask-type:luminance" maskUnits="userSpaceOnUse" x="-4" y="-5" width="48" height="47">
<path d="M12.7095 -4.44415L43.0777 11.3566L27.2755 41.7249L-3.09277 25.9226L12.7095 -4.44415Z" fill="white"/>
</mask>
<g mask="url(#mask88_15_9833)">
<path d="M15.5829 35.2575C14.8933 35.0733 14.2125 34.8449 13.5391 34.5679C13.4993 34.3115 13.4728 34.0551 13.4596 33.809C13.4095 32.9484 13.4993 32.1144 13.5892 31.3084C13.6776 30.495 13.7616 29.7258 13.6983 28.9802C13.5848 27.6319 13.1781 26.3175 12.518 25.177C10.5375 21.7495 6.67095 20.497 2.89573 19.8089C2.85448 19.1885 2.84563 18.5667 2.87363 17.9419C7.05554 18.6713 11.6957 20.0785 14.1079 24.2575C14.9022 25.6308 15.3914 27.2134 15.5255 28.827C15.6021 29.7494 15.5048 30.6424 15.4105 31.5059C15.3295 32.2706 15.2499 32.9927 15.2912 33.7C15.3221 34.2069 15.4135 34.7491 15.5829 35.2575Z" fill="#00004D"/>
</g>
</g>
</g>
<mask id="mask89_15_9833" style="mask-type:luminance" maskUnits="userSpaceOnUse" x="52" y="5" width="40" height="42">
<path d="M91.4022 5.62158H52.5479V46.7393H91.4022V5.62158Z" fill="white"/>
</mask>
<g mask="url(#mask89_15_9833)">
<mask id="mask90_15_9833" style="mask-type:luminance" maskUnits="userSpaceOnUse" x="54" y="7" width="38" height="37">
<path d="M54.5303 7.37512H91.0019V43.8453H54.5303V7.37512Z" fill="white"/>
</mask>
<g mask="url(#mask90_15_9833)">
<mask id="mask91_15_9833" style="mask-type:luminance" maskUnits="userSpaceOnUse" x="54" y="7" width="38" height="37">
<path d="M72.7654 7.37512C62.6952 7.37512 54.5303 15.54 54.5303 25.6102C54.5303 35.6819 62.6952 43.8453 72.7654 43.8453C82.837 43.8453 91.0019 35.6819 91.0019 25.6102C91.0019 15.54 82.837 7.37512 72.7654 7.37512Z" fill="white"/>
</mask>
<g mask="url(#mask91_15_9833)">
<mask id="mask92_15_9833" style="mask-type:luminance" maskUnits="userSpaceOnUse" x="54" y="7" width="38" height="38">
<path d="M91.0246 7.13049H54.4336V44.0987H91.0246V7.13049Z" fill="white"/>
</mask>
<g mask="url(#mask92_15_9833)">
<mask id="mask93_15_9833" style="mask-type:luminance" maskUnits="userSpaceOnUse" x="54" y="7" width="38" height="37">
<path d="M54.5303 7.37512H91.0019V43.8453H54.5303V7.37512Z" fill="white"/>
</mask>
<g mask="url(#mask93_15_9833)">
<mask id="mask94_15_9833" style="mask-type:luminance" maskUnits="userSpaceOnUse" x="54" y="7" width="38" height="37">
<path d="M72.7654 7.37512C62.6952 7.37512 54.5303 15.54 54.5303 25.6102C54.5303 35.6819 62.6952 43.8453 72.7654 43.8453C82.837 43.8453 91.0019 35.6819 91.0019 25.6102C91.0019 15.54 82.837 7.37512 72.7654 7.37512Z" fill="white"/>
</mask>
<g mask="url(#mask94_15_9833)">
<path d="M54.5303 7.37512H91.0019V43.8453H54.5303V7.37512Z" fill="#00004D"/>
</g>
</g>
</g>
</g>
</g>
<mask id="mask95_15_9833" style="mask-type:luminance" maskUnits="userSpaceOnUse" x="56" y="9" width="34" height="34">
<path d="M56.2803 9.12567H89.2523V42.0977H56.2803V9.12567Z" fill="white"/>
</mask>
<g mask="url(#mask95_15_9833)">
<mask id="mask96_15_9833" style="mask-type:luminance" maskUnits="userSpaceOnUse" x="56" y="9" width="34" height="34">
<path d="M89.2459 25.6103C89.2459 34.7124 81.8664 42.0919 72.7643 42.0919C63.6607 42.0919 56.2812 34.7124 56.2812 25.6103C56.2812 16.5068 63.6607 9.12726 72.7643 9.12726C81.8664 9.12726 89.2459 16.5068 89.2459 25.6103Z" fill="white"/>
</mask>
<g mask="url(#mask96_15_9833)">
<path d="M89.2459 25.6103C89.2459 34.7124 81.8664 42.0919 72.7643 42.0919C63.6607 42.0919 56.2812 34.7124 56.2812 25.6103C56.2812 16.5068 63.6607 9.12726 72.7643 9.12726C81.8664 9.12726 89.2459 16.5068 89.2459 25.6103Z" fill="#F5F5F5"/>
</g>
</g>
<mask id="mask97_15_9833" style="mask-type:luminance" maskUnits="userSpaceOnUse" x="73" y="9" width="9" height="34">
<path d="M73.4863 9.12567H81.1959V42.0977H73.4863V9.12567Z" fill="white"/>
</mask>
<g mask="url(#mask97_15_9833)">
<mask id="mask98_15_9833" style="mask-type:luminance" maskUnits="userSpaceOnUse" x="56" y="9" width="34" height="34">
<path d="M89.2468 25.6102C89.2468 34.7122 81.8673 42.0917 72.7653 42.0917C63.6617 42.0917 56.2822 34.7122 56.2822 25.6102C56.2822 16.5066 63.6617 9.12714 72.7653 9.12714C81.8673 9.12714 89.2468 16.5066 89.2468 25.6102Z" fill="white"/>
</mask>
<g mask="url(#mask98_15_9833)">
<path d="M75.1908 46.6671L74.3479 46.2678C81.4062 31.3555 80.7888 21.3693 79.0279 15.621C77.1373 9.44983 73.5935 6.74883 73.5566 6.72231L74.1166 5.97522C74.2698 6.09016 77.9404 8.88694 79.9194 15.3469C81.0732 19.1177 81.4047 23.3615 80.9052 27.9605C80.2804 33.6808 78.3574 39.9757 75.1908 46.6671Z" fill="#00004D"/>
</g>
</g>
<mask id="mask99_15_9833" style="mask-type:luminance" maskUnits="userSpaceOnUse" x="56" y="18" width="34" height="9">
<path d="M56.2803 18.8246H89.2523V26.1672H56.2803V18.8246Z" fill="white"/>
</mask>
<g mask="url(#mask99_15_9833)">
<mask id="mask100_15_9833" style="mask-type:luminance" maskUnits="userSpaceOnUse" x="56" y="9" width="34" height="34">
<path d="M89.2468 25.6102C89.2468 34.7123 81.8673 42.0918 72.7653 42.0918C63.6617 42.0918 56.2822 34.7123 56.2822 25.6102C56.2822 16.5067 63.6617 9.1272 72.7653 9.1272C81.8673 9.1272 89.2468 16.5067 89.2468 25.6102Z" fill="white"/>
</mask>
<g mask="url(#mask100_15_9833)">
<path d="M53.3175 26.0244L52.8887 25.1948C57.7514 22.6883 62.7835 20.8979 67.8437 19.8738C71.8974 19.056 75.9776 18.723 79.9709 18.8865C86.7875 19.1665 90.94 20.7741 91.1109 20.8434L90.7705 21.7113C90.716 21.6892 86.5503 20.0845 79.8899 19.8178C73.7378 19.5703 64.1303 20.447 53.3175 26.0244Z" fill="#00004D"/>
</g>
</g>
<mask id="mask101_15_9833" style="mask-type:luminance" maskUnits="userSpaceOnUse" x="83" y="9" width="7" height="24">
<path d="M83.1035 9.93024H89.2526V32.7274H83.1035V9.93024Z" fill="white"/>
</mask>
<g mask="url(#mask101_15_9833)">
<mask id="mask102_15_9833" style="mask-type:luminance" maskUnits="userSpaceOnUse" x="56" y="9" width="34" height="34">
<path d="M89.2468 25.6102C89.2468 34.7122 81.8673 42.0917 72.7653 42.0917C63.6617 42.0917 56.2822 34.7122 56.2822 25.6102C56.2822 16.5066 63.6617 9.12714 72.7653 9.12714C81.8673 9.12714 89.2468 16.5066 89.2468 25.6102Z" fill="white"/>
</mask>
<g mask="url(#mask102_15_9833)">
<path d="M88.8513 32.72C85.8983 27.9944 84.4955 22.0604 83.8397 17.9153C83.1295 13.4343 83.1133 10.0113 83.1133 9.97736L84.046 9.97589C84.046 10.1085 84.1448 23.4264 89.6411 32.2264L88.8513 32.72Z" fill="#00004D"/>
</g>
</g>
<mask id="mask103_15_9833" style="mask-type:luminance" maskUnits="userSpaceOnUse" x="56" y="9" width="20" height="33">
<path d="M56.7559 9.43805H75.7822V41.7484H56.7559V9.43805Z" fill="white"/>
</mask>
<g mask="url(#mask103_15_9833)">
<mask id="mask104_15_9833" style="mask-type:luminance" maskUnits="userSpaceOnUse" x="56" y="9" width="34" height="34">
<path d="M89.2468 25.6102C89.2468 34.7122 81.8673 42.0917 72.7653 42.0917C63.6617 42.0917 56.2822 34.7122 56.2822 25.6102C56.2822 16.5066 63.6617 9.12714 72.7653 9.12714C81.8673 9.12714 89.2468 16.5066 89.2468 25.6102Z" fill="white"/>
</mask>
<g mask="url(#mask104_15_9833)">
<path d="M59.6118 41.6497L59.0341 40.9173C65.4573 35.8572 69.9708 31.2892 72.4478 27.3416C74.5211 24.0364 75.1856 21.1424 74.4208 18.7361C72.0691 11.3256 56.9623 10.4518 56.8105 10.4415L56.8577 9.51172C57.0198 9.51909 60.8466 9.73128 65.0476 10.9101C67.5291 11.6071 69.6186 12.5001 71.2572 13.564C73.3481 14.9226 74.7111 16.567 75.3094 18.4517C77.1351 24.2029 71.8539 32.0083 59.6118 41.6497Z" fill="#00004D"/>
</g>
</g>
</g>
</svg>
